<svg width="24" height="24" viewBox="0 0 24 24" fill="none" xmlns="http://www.w3.org/2000/svg">
    <path fill-rule="evenodd" clip-rule="evenodd" d="M3 2C2.44772 2 2 2.44771 2 3V9.18182C2 9.7341 2.44771 10.1818 3 10.1818H9.18182C9.7341 10.1818 10.1818 9.7341 10.1818 9.18182V3C10.1818 2.44772 9.7341 2 9.18182 2H3ZM14.8173 2C14.265 2 13.8173 2.44771 13.8173 3V9.18182C13.8173 9.7341 14.265 10.1818 14.8173 10.1818H20.9991C21.5514 10.1818 21.9991 9.7341 21.9991 9.18182V3C21.9991 2.44772 21.5514 2 20.9991 2H14.8173ZM2 14.8182C2 14.2659 2.44772 13.8182 3 13.8182H9.18182C9.7341 13.8182 10.1818 14.2659 10.1818 14.8182V21C10.1818 21.5523 9.7341 22 9.18182 22H3C2.44771 22 2 21.5523 2 21V14.8182ZM14.8173 13.8182C14.265 13.8182 13.8173 14.2659 13.8173 14.8182V21C13.8173 21.5523 14.265 22 14.8173 22H20.9991C21.5514 22 21.9991 21.5523 21.9991 21V14.8182C21.9991 14.2659 21.5514 13.8182 20.9991 13.8182H14.8173Z" fill="#8E999E"/>
</svg>
